<svg xmlns="http://www.w3.org/2000/svg" viewBox="0 0 1800 2200" preserveAspectRatio="xMidYMid slice" shape-rendering="geometricPrecision"><path d="M-140 -120.3L-15.8 -117M-15.8 -117L8.8 5.9M-140 -120.3L8.8 5.9M-140 -120.3L-123 -7M-123 -7L8.8 5.9M-15.8 -117L157.8 -133M157.8 -133L8.8 5.9M157.8 -133L153.5 15.1M8.8 5.9L153.5 15.1M157.8 -133L285.2 -112.7M285.2 -112.7L248.7 7.3M157.8 -133L248.7 7.3M153.5 15.1L248.7 7.3M285.2 -112.7L385.5 -128.2M385.5 -128.2L248.7 7.3M385.5 -128.2L414.3 7.5M248.7 7.3L414.3 7.5M385.5 -128.2L525.6 -152.4M525.6 -152.4L414.3 7.5M525.6 -152.4L552 21M414.3 7.5L552 21M525.6 -152.4L660.3 -155.5M660.3 -155.5L552 21M660.3 -155.5L656.2 -2.8M552 21L656.2 -2.8M660.3 -155.5L818.6 -159.1M818.6 -159.1L656.2 -2.8M818.6 -159.1L793.8 -20.6M656.2 -2.8L793.8 -20.6M818.6 -159.1L921.3 -150.2M921.3 -150.2L793.8 -20.6M921.3 -150.2L938 -18.4M793.8 -20.6L938 -18.4M921.3 -150.2L1088.4 -122.5M1088.4 -122.5L1094.2 17.2M921.3 -150.2L1094.2 17.2M938 -18.4L1094.2 17.2M1088.4 -122.5L1194 -147.8M1194 -147.8L1206.6 -5.1M1088.4 -122.5L1206.6 -5.1M1094.2 17.2L1206.6 -5.1M1194 -147.8L1369 -127.5M1369 -127.5L1328.9 -12.9M1194 -147.8L1328.9 -12.9M1206.6 -5.1L1328.9 -12.9M1369 -127.5L1482.2 -158.3M1482.2 -158.3L1481.3 16.1M1369 -127.5L1481.3 16.1M1328.9 -12.9L1481.3 16.1M1482.2 -158.3L1602.1 -148.2M1602.1 -148.2L1481.3 16.1M1602.1 -148.2L1611.3 -15.3M1481.3 16.1L1611.3 -15.3M1602.1 -148.2L1745.7 -149.5M1745.7 -149.5L1776.9 1.4M1602.1 -148.2L1776.9 1.4M1611.3 -15.3L1776.9 1.4M1745.7 -149.5L1875.6 -132.9M1875.6 -132.9L1776.9 1.4M1875.6 -132.9L1870.6 -3.9M1776.9 1.4L1870.6 -3.9M1875.6 -132.9L2022.8 -115.1M2022.8 -115.1L2035.4 -0.2M1875.6 -132.9L2035.4 -0.2M1870.6 -3.9L2035.4 -0.2M2022.8 -115.1L2173.6 -143.8M2173.6 -143.8L2140.6 -4.9M2022.8 -115.1L2140.6 -4.9M2035.4 -0.2L2140.6 -4.9M8.8 5.9L-122.5 126M-123 -7L-122.5 126M8.8 5.9L23.2 111.3M-122.5 126L23.2 111.3M153.5 15.1L23.2 111.3M153.5 15.1L124.8 148.1M23.2 111.3L124.8 148.1M248.7 7.3L271.3 135.3M153.5 15.1L271.3 135.3M124.8 148.1L271.3 135.3M414.3 7.5L271.3 135.3M414.3 7.5L400 126.3M271.3 135.3L400 126.3M552 21L559.8 116.1M414.3 7.5L559.8 116.1M400 126.3L559.8 116.1M656.2 -2.8L559.8 116.1M656.2 -2.8L676.2 115.9M559.8 116.1L676.2 115.9M793.8 -20.6L676.2 115.9M793.8 -20.6L814.4 145.8M676.2 115.9L814.4 145.8M938 -18.4L814.4 145.8M938 -18.4L955.9 122M814.4 145.8L955.9 122M1094.2 17.2L1102.1 155.9M938 -18.4L1102.1 155.9M955.9 122L1102.1 155.9M1206.6 -5.1L1205.7 140.8M1094.2 17.2L1205.7 140.8M1102.1 155.9L1205.7 140.8M1328.9 -12.9L1359.1 151.5M1206.6 -5.1L1359.1 151.5M1205.7 140.8L1359.1 151.5M1481.3 16.1L1481.1 122.5M1328.9 -12.9L1481.1 122.5M1359.1 151.5L1481.1 122.5M1611.3 -15.3L1481.1 122.5M1611.3 -15.3L1617.6 139.1M1481.1 122.5L1617.6 139.1M1776.9 1.4L1617.6 139.1M1776.9 1.4L1775.7 154.6M1617.6 139.1L1775.7 154.6M1870.6 -3.9L1775.7 154.6M1870.6 -3.9L1888.3 135.4M1775.7 154.6L1888.3 135.4M2035.4 -0.2L2041.9 153.3M1870.6 -3.9L2041.9 153.3M1888.3 135.4L2041.9 153.3M2140.6 -4.9L2165.8 158.7M2035.4 -0.2L2165.8 158.7M2041.9 153.3L2165.8 158.7M23.2 111.3L13.9 291M-122.5 126L13.9 291M-122.5 126L-149.6 259.7M-149.6 259.7L13.9 291M124.8 148.1L13.9 291M124.8 148.1L152.7 280.8M13.9 291L152.7 280.8M271.3 135.3L275.3 248.7M124.8 148.1L275.3 248.7M152.7 280.8L275.3 248.7M400 126.3L422.2 279M271.3 135.3L422.2 279M275.3 248.7L422.2 279M559.8 116.1L422.2 279M559.8 116.1L527.4 282M422.2 279L527.4 282M676.2 115.9L654.3 262.1M559.8 116.1L654.3 262.1M527.4 282L654.3 262.1M814.4 145.8L807.6 268M676.2 115.9L807.6 268M654.3 262.1L807.6 268M955.9 122L807.6 268M955.9 122L948.3 285.9M807.6 268L948.3 285.9M1102.1 155.9L948.3 285.9M1102.1 155.9L1089.1 278.4M948.3 285.9L1089.1 278.4M1205.7 140.8L1089.1 278.4M1205.7 140.8L1201.6 291.7M1089.1 278.4L1201.6 291.7M1359.1 151.5L1356.3 261.5M1205.7 140.8L1356.3 261.5M1201.6 291.7L1356.3 261.5M1481.1 122.5L1356.3 261.5M1481.1 122.5L1492.9 258M1356.3 261.5L1492.9 258M1617.6 139.1L1492.9 258M1617.6 139.1L1625.9 271.2M1492.9 258L1625.9 271.2M1775.7 154.6L1625.9 271.2M1775.7 154.6L1778.6 246.5M1625.9 271.2L1778.6 246.5M1888.3 135.4L1778.6 246.5M1888.3 135.4L1887.8 264.2M1778.6 246.5L1887.8 264.2M2041.9 153.3L2023.4 279.6M1888.3 135.4L2023.4 279.6M1887.8 264.2L2023.4 279.6M2165.8 158.7L2138 246.9M2041.9 153.3L2138 246.9M2023.4 279.6L2138 246.9M13.9 291L-115.4 408.6M-149.6 259.7L-115.4 408.6M13.9 291L-8.1 425.4M-115.4 408.6L-8.1 425.4M152.7 280.8L-8.1 425.4M152.7 280.8L110.8 422.7M-8.1 425.4L110.8 422.7M275.3 248.7L260.4 421.6M152.7 280.8L260.4 421.6M110.8 422.7L260.4 421.6M422.2 279L260.4 421.6M422.2 279L422.3 389M260.4 421.6L422.3 389M527.4 282L554.6 383.9M422.2 279L554.6 383.9M422.3 389L554.6 383.9M654.3 262.1L554.6 383.9M654.3 262.1L688.3 410.9M554.6 383.9L688.3 410.9M807.6 268L688.3 410.9M807.6 268L791.3 393.8M688.3 410.9L791.3 393.8M948.3 285.9L791.3 393.8M948.3 285.9L922.9 380.9M791.3 393.8L922.9 380.9M1089.1 278.4L1084.4 383.1M948.3 285.9L1084.4 383.1M922.9 380.9L1084.4 383.1M1201.6 291.7L1084.4 383.1M1201.6 291.7L1209.4 402.7M1084.4 383.1L1209.4 402.7M1356.3 261.5L1209.4 402.7M1356.3 261.5L1338.9 381.1M1209.4 402.7L1338.9 381.1M1492.9 258L1338.9 381.1M1492.9 258L1503 423.4M1338.9 381.1L1503 423.4M1625.9 271.2L1604.2 395.8M1492.9 258L1604.2 395.8M1503 423.4L1604.2 395.8M1778.6 246.5L1604.2 395.8M1778.6 246.5L1753.3 426.9M1604.2 395.8L1753.3 426.9M1887.8 264.2L1897.8 413.2M1778.6 246.5L1897.8 413.2M1753.3 426.9L1897.8 413.2M2023.4 279.6L1897.8 413.2M2023.4 279.6L2004.6 397.3M1897.8 413.2L2004.6 397.3M2138 246.9L2004.6 397.3M2138 246.9L2176.6 408.3M2004.6 397.3L2176.6 408.3M-8.1 425.4L-116.1 519.2M-115.4 408.6L-116.1 519.2M-8.1 425.4L-15.7 541.4M-116.1 519.2L-15.7 541.4M110.8 422.7L121.9 556.4M-8.1 425.4L121.9 556.4M-15.7 541.4L121.9 556.4M260.4 421.6L277.3 519.2M110.8 422.7L277.3 519.2M121.9 556.4L277.3 519.2M422.3 389L416.9 534.7M260.4 421.6L416.9 534.7M277.3 519.2L416.9 534.7M554.6 383.9L416.9 534.7M554.6 383.9L557 545.5M416.9 534.7L557 545.5M688.3 410.9L557 545.5M688.3 410.9L655.6 561.6M557 545.5L655.6 561.6M791.3 393.8L818.5 528M688.3 410.9L818.5 528M655.6 561.6L818.5 528M922.9 380.9L951.7 521.9M791.3 393.8L951.7 521.9M818.5 528L951.7 521.9M1084.4 383.1L951.7 521.9M1084.4 383.1L1062.1 536.8M951.7 521.9L1062.1 536.8M1209.4 402.7L1062.1 536.8M1209.4 402.7L1192.1 560.2M1062.1 536.8L1192.1 560.2M1338.9 381.1L1192.1 560.2M1338.9 381.1L1353.9 551.5M1192.1 560.2L1353.9 551.5M1503 423.4L1471.4 564M1338.9 381.1L1471.4 564M1353.9 551.5L1471.4 564M1604.2 395.8L1471.4 564M1604.2 395.8L1636.3 554.2M1471.4 564L1636.3 554.2M1753.3 426.9L1636.3 554.2M1753.3 426.9L1757 561.3M1636.3 554.2L1757 561.3M1897.8 413.2L1757 561.3M1897.8 413.2L1892.7 547.6M1757 561.3L1892.7 547.6M2004.6 397.3L2007.2 516.1M1897.8 413.2L2007.2 516.1M1892.7 547.6L2007.2 516.1M2176.6 408.3L2169.1 519M2004.6 397.3L2169.1 519M2007.2 516.1L2169.1 519M-15.7 541.4L-149.7 681.5M-116.1 519.2L-149.7 681.5M-15.7 541.4L2.2 693.9M-149.7 681.5L2.2 693.9M121.9 556.4L2.2 693.9M121.9 556.4L152.7 686.8M2.2 693.9L152.7 686.8M277.3 519.2L280.5 666.1M121.9 556.4L280.5 666.1M152.7 686.8L280.5 666.1M416.9 534.7L280.5 666.1M416.9 534.7L390.5 672.2M280.5 666.1L390.5 672.2M557 545.5L390.5 672.2M557 545.5L520.4 696.8M390.5 672.2L520.4 696.8M655.6 561.6L681.5 683.1M557 545.5L681.5 683.1M520.4 696.8L681.5 683.1M818.5 528L681.5 683.1M818.5 528L833.9 681M681.5 683.1L833.9 681M951.7 521.9L942.4 695.5M818.5 528L942.4 695.5M833.9 681L942.4 695.5M1062.1 536.8L942.4 695.5M1062.1 536.8L1056.8 670M942.4 695.5L1056.8 670M1192.1 560.2L1206.5 680.8M1062.1 536.8L1206.5 680.8M1056.8 670L1206.5 680.8M1353.9 551.5L1206.5 680.8M1353.9 551.5L1366.4 679.8M1206.5 680.8L1366.4 679.8M1471.4 564L1366.4 679.8M1471.4 564L1478.1 684.3M1366.4 679.8L1478.1 684.3M1636.3 554.2L1613.5 661.3M1471.4 564L1613.5 661.3M1478.1 684.3L1613.5 661.3M1757 561.3L1613.5 661.3M1757 561.3L1734.3 690.4M1613.5 661.3L1734.3 690.4M1892.7 547.6L1887.8 698M1757 561.3L1887.8 698M1734.3 690.4L1887.8 698M2007.2 516.1L2034.3 692.6M1892.7 547.6L2034.3 692.6M1887.8 698L2034.3 692.6M2169.1 519L2034.3 692.6M2169.1 519L2171.5 688.3M2034.3 692.6L2171.5 688.3M2.2 693.9L16 830M-149.7 681.5L16 830M-149.7 681.5L-141.9 804.6M-141.9 804.6L16 830M152.7 686.8L16 830M152.7 686.8L114.1 808.2M16 830L114.1 808.2M280.5 666.1L114.1 808.2M280.5 666.1L272.4 821.6M114.1 808.2L272.4 821.6M390.5 672.2L272.4 821.6M390.5 672.2L386.7 817.3M272.4 821.6L386.7 817.3M520.4 696.8L386.7 817.3M520.4 696.8L541.2 786.8M386.7 817.3L541.2 786.8M681.5 683.1L693.7 822M520.4 696.8L693.7 822M541.2 786.8L693.7 822M833.9 681L693.7 822M833.9 681L794.7 811.4M693.7 822L794.7 811.4M942.4 695.5L957.3 832.9M833.9 681L957.3 832.9M794.7 811.4L957.3 832.9M1056.8 670L957.3 832.9M1056.8 670L1071.3 804.5M957.3 832.9L1071.3 804.5M1206.5 680.8L1071.3 804.5M1206.5 680.8L1201.4 806.6M1071.3 804.5L1201.4 806.6M1366.4 679.8L1331.2 789M1206.5 680.8L1331.2 789M1201.4 806.6L1331.2 789M1478.1 684.3L1483.7 824.2M1366.4 679.8L1483.7 824.2M1331.2 789L1483.7 824.2M1613.5 661.3L1599 802.3M1478.1 684.3L1599 802.3M1483.7 824.2L1599 802.3M1734.3 690.4L1599 802.3M1734.3 690.4L1760.6 812M1599 802.3L1760.6 812M1887.8 698L1890.4 817M1734.3 690.4L1890.4 817M1760.6 812L1890.4 817M2034.3 692.6L1890.4 817M2034.3 692.6L2001.8 786.3M1890.4 817L2001.8 786.3M2171.5 688.3L2001.8 786.3M2171.5 688.3L2174.9 806.7M2001.8 786.3L2174.9 806.7M16 830L-23.9 959.6M-141.9 804.6L-23.9 959.6M-141.9 804.6L-144.2 967.5M-144.2 967.5L-23.9 959.6M114.1 808.2L-23.9 959.6M114.1 808.2L111.9 949.2M-23.9 959.6L111.9 949.2M272.4 821.6L111.9 949.2M272.4 821.6L252.8 936.5M111.9 949.2L252.8 936.5M386.7 817.3L388.3 953.3M272.4 821.6L388.3 953.3M252.8 936.5L388.3 953.3M541.2 786.8L546.4 940M386.7 817.3L546.4 940M388.3 953.3L546.4 940M693.7 822L676.7 926.2M541.2 786.8L676.7 926.2M546.4 940L676.7 926.2M794.7 811.4L676.7 926.2M794.7 811.4L823.2 937.7M676.7 926.2L823.2 937.7M957.3 832.9L823.2 937.7M957.3 832.9L958.7 925.1M823.2 937.7L958.7 925.1M1071.3 804.5L958.7 925.1M1071.3 804.5L1066.7 956.3M958.7 925.1L1066.7 956.3M1201.4 806.6L1066.7 956.3M1201.4 806.6L1200.4 933.1M1066.7 956.3L1200.4 933.1M1331.2 789L1200.4 933.1M1331.2 789L1363.2 953.1M1200.4 933.1L1363.2 953.1M1483.7 824.2L1470.7 944M1331.2 789L1470.7 944M1363.2 953.1L1470.7 944M1599 802.3L1470.7 944M1599 802.3L1600.3 946.2M1470.7 944L1600.3 946.2M1760.6 812L1600.3 946.2M1760.6 812L1778.3 929.5M1600.3 946.2L1778.3 929.5M1890.4 817L1778.3 929.5M1890.4 817L1866.9 921M1778.3 929.5L1866.9 921M2001.8 786.3L2009.5 956.7M1890.4 817L2009.5 956.7M1866.9 921L2009.5 956.7M2174.9 806.7L2142.2 967.1M2001.8 786.3L2142.2 967.1M2009.5 956.7L2142.2 967.1M-23.9 959.6L13.9 1060.7M-144.2 967.5L13.9 1060.7M-144.2 967.5L-115 1069.7M-115 1069.7L13.9 1060.7M111.9 949.2L13.9 1060.7M111.9 949.2L137.3 1093.7M13.9 1060.7L137.3 1093.7M252.8 936.5L248.2 1066.8M111.9 949.2L248.2 1066.8M137.3 1093.7L248.2 1066.8M388.3 953.3L248.2 1066.8M388.3 953.3L422 1094.1M248.2 1066.8L422 1094.1M546.4 940L422 1094.1M546.4 940L523 1059M422 1094.1L523 1059M676.7 926.2L523 1059M676.7 926.2L674.2 1092.8M523 1059L674.2 1092.8M823.2 937.7L794.4 1077.3M676.7 926.2L794.4 1077.3M674.2 1092.8L794.4 1077.3M958.7 925.1L924.7 1083.8M823.2 937.7L924.7 1083.8M794.4 1077.3L924.7 1083.8M1066.7 956.3L924.7 1083.8M1066.7 956.3L1070.6 1094M924.7 1083.8L1070.6 1094M1200.4 933.1L1223.4 1091.8M1066.7 956.3L1223.4 1091.8M1070.6 1094L1223.4 1091.8M1363.2 953.1L1223.4 1091.8M1363.2 953.1L1346.1 1060.2M1223.4 1091.8L1346.1 1060.2M1470.7 944L1476.2 1099.8M1363.2 953.1L1476.2 1099.8M1346.1 1060.2L1476.2 1099.8M1600.3 946.2L1643.5 1099.2M1470.7 944L1643.5 1099.2M1476.2 1099.8L1643.5 1099.2M1778.3 929.5L1749.9 1078.6M1600.3 946.2L1749.9 1078.6M1643.5 1099.2L1749.9 1078.6M1866.9 921L1749.9 1078.6M1866.9 921L1909.7 1090.2M1749.9 1078.6L1909.7 1090.2M2009.5 956.7L2017.2 1073.2M1866.9 921L2017.2 1073.2M1909.7 1090.2L2017.2 1073.2M2142.2 967.1L2017.2 1073.2M2142.2 967.1L2142.4 1103.1M2017.2 1073.2L2142.4 1103.1M13.9 1060.7L-15.4 1192.6M-115 1069.7L-15.4 1192.6M-115 1069.7L-124.3 1212.7M-124.3 1212.7L-15.4 1192.6M137.3 1093.7L-15.4 1192.6M137.3 1093.7L143.7 1210.7M-15.4 1192.6L143.7 1210.7M248.2 1066.8L143.7 1210.7M248.2 1066.8L274.5 1221.2M143.7 1210.7L274.5 1221.2M422 1094.1L386.2 1216.3M248.2 1066.8L386.2 1216.3M274.5 1221.2L386.2 1216.3M523 1059L542.7 1236.3M422 1094.1L542.7 1236.3M386.2 1216.3L542.7 1236.3M674.2 1092.8L678.9 1222.9M523 1059L678.9 1222.9M542.7 1236.3L678.9 1222.9M794.4 1077.3L678.9 1222.9M794.4 1077.3L808.5 1232.5M678.9 1222.9L808.5 1232.5M924.7 1083.8L952.6 1214.8M794.4 1077.3L952.6 1214.8M808.5 1232.5L952.6 1214.8M1070.6 1094L952.6 1214.8M1070.6 1094L1077.7 1206.1M952.6 1214.8L1077.7 1206.1M1223.4 1091.8L1077.7 1206.1M1223.4 1091.8L1218.5 1221.3M1077.7 1206.1L1218.5 1221.3M1346.1 1060.2L1328.8 1198.1M1223.4 1091.8L1328.8 1198.1M1218.5 1221.3L1328.8 1198.1M1476.2 1099.8L1503.5 1192M1346.1 1060.2L1503.5 1192M1328.8 1198.1L1503.5 1192M1643.5 1099.2L1503.5 1192M1643.5 1099.2L1603 1227.4M1503.5 1192L1603 1227.4M1749.9 1078.6L1756.6 1226.2M1643.5 1099.2L1756.6 1226.2M1603 1227.4L1756.6 1226.2M1909.7 1090.2L1756.6 1226.2M1909.7 1090.2L1888.4 1227.8M1756.6 1226.2L1888.4 1227.8M2017.2 1073.2L1888.4 1227.8M2017.2 1073.2L2022.2 1198M1888.4 1227.8L2022.2 1198M2142.4 1103.1L2022.2 1198M2142.4 1103.1L2170.7 1213.6M2022.2 1198L2170.7 1213.6M-15.4 1192.6L7.4 1328.2M-124.3 1212.7L7.4 1328.2M-124.3 1212.7L-152 1331.6M-152 1331.6L7.4 1328.2M143.7 1210.7L7.4 1328.2M143.7 1210.7L129.2 1331M7.4 1328.2L129.2 1331M274.5 1221.2L249.2 1328.8M143.7 1210.7L249.2 1328.8M129.2 1331L249.2 1328.8M386.2 1216.3L249.2 1328.8M386.2 1216.3L406.3 1334.8M249.2 1328.8L406.3 1334.8M542.7 1236.3L556.5 1364.1M386.2 1216.3L556.5 1364.1M406.3 1334.8L556.5 1364.1M678.9 1222.9L684.8 1339.7M542.7 1236.3L684.8 1339.7M556.5 1364.1L684.8 1339.7M808.5 1232.5L824.1 1345.4M678.9 1222.9L824.1 1345.4M684.8 1339.7L824.1 1345.4M952.6 1214.8L924 1326.5M808.5 1232.5L924 1326.5M824.1 1345.4L924 1326.5M1077.7 1206.1L1067.1 1367.9M952.6 1214.8L1067.1 1367.9M924 1326.5L1067.1 1367.9M1218.5 1221.3L1237.2 1360.8M1077.7 1206.1L1237.2 1360.8M1067.1 1367.9L1237.2 1360.8M1328.8 1198.1L1237.2 1360.8M1328.8 1198.1L1365.3 1329.8M1237.2 1360.8L1365.3 1329.8M1503.5 1192L1365.3 1329.8M1503.5 1192L1462.4 1355.9M1365.3 1329.8L1462.4 1355.9M1603 1227.4L1462.4 1355.9M1603 1227.4L1620.8 1373.7M1462.4 1355.9L1620.8 1373.7M1756.6 1226.2L1774.9 1338M1603 1227.4L1774.9 1338M1620.8 1373.7L1774.9 1338M1888.4 1227.8L1875.6 1340.2M1756.6 1226.2L1875.6 1340.2M1774.9 1338L1875.6 1340.2M2022.2 1198L1875.6 1340.2M2022.2 1198L2023.8 1349.8M1875.6 1340.2L2023.8 1349.8M2170.7 1213.6L2173.7 1368.9M2022.2 1198L2173.7 1368.9M2023.8 1349.8L2173.7 1368.9M7.4 1328.2L-135.9 1498.9M-152 1331.6L-135.9 1498.9M7.4 1328.2L-4.8 1464.9M-135.9 1498.9L-4.8 1464.9M129.2 1331L-4.8 1464.9M129.2 1331L111.9 1485.6M-4.8 1464.9L111.9 1485.6M249.2 1328.8L283.9 1466.8M129.2 1331L283.9 1466.8M111.9 1485.6L283.9 1466.8M406.3 1334.8L387 1495.3M249.2 1328.8L387 1495.3M283.9 1466.8L387 1495.3M556.5 1364.1L387 1495.3M556.5 1364.1L562.6 1484.5M387 1495.3L562.6 1484.5M684.8 1339.7L562.6 1484.5M684.8 1339.7L672.4 1507.9M562.6 1484.5L672.4 1507.9M824.1 1345.4L804 1483.9M684.8 1339.7L804 1483.9M672.4 1507.9L804 1483.9M924 1326.5L961.4 1468.2M824.1 1345.4L961.4 1468.2M804 1483.9L961.4 1468.2M1067.1 1367.9L961.4 1468.2M1067.1 1367.9L1093.1 1499.4M961.4 1468.2L1093.1 1499.4M1237.2 1360.8L1238.1 1508.1M1067.1 1367.9L1238.1 1508.1M1093.1 1499.4L1238.1 1508.1M1365.3 1329.8L1360.7 1487.3M1237.2 1360.8L1360.7 1487.3M1238.1 1508.1L1360.7 1487.3M1462.4 1355.9L1360.7 1487.3M1462.4 1355.9L1500.4 1504.4M1360.7 1487.3L1500.4 1504.4M1620.8 1373.7L1637.5 1503.8M1462.4 1355.9L1637.5 1503.8M1500.4 1504.4L1637.5 1503.8M1774.9 1338L1768.5 1499.4M1620.8 1373.7L1768.5 1499.4M1637.5 1503.8L1768.5 1499.4M1875.6 1340.2L1768.5 1499.4M1875.6 1340.2L1872.8 1486.2M1768.5 1499.4L1872.8 1486.2M2023.8 1349.8L1872.8 1486.2M2023.8 1349.8L2015.8 1494.3M1872.8 1486.2L2015.8 1494.3M2173.7 1368.9L2015.8 1494.3M2173.7 1368.9L2162.6 1464.8M2015.8 1494.3L2162.6 1464.8M-4.8 1464.9L-119.3 1622.5M-135.9 1498.9L-119.3 1622.5M-4.8 1464.9L1.7 1595.8M-119.3 1622.5L1.7 1595.8M111.9 1485.6L113.3 1617.4M-4.8 1464.9L113.3 1617.4M1.7 1595.8L113.3 1617.4M283.9 1466.8L113.3 1617.4M283.9 1466.8L250 1612.3M113.3 1617.4L250 1612.3M387 1495.3L250 1612.3M387 1495.3L414.9 1624M250 1612.3L414.9 1624M562.6 1484.5L414.9 1624M562.6 1484.5L559.6 1615.5M414.9 1624L559.6 1615.5M672.4 1507.9L559.6 1615.5M672.4 1507.9L692.6 1638.9M559.6 1615.5L692.6 1638.9M804 1483.9L692.6 1638.9M804 1483.9L793.2 1602.7M692.6 1638.9L793.2 1602.7M961.4 1468.2L922.9 1602.4M804 1483.9L922.9 1602.4M793.2 1602.7L922.9 1602.4M1093.1 1499.4L1064.4 1623.2M961.4 1468.2L1064.4 1623.2M922.9 1602.4L1064.4 1623.2M1238.1 1508.1L1064.4 1623.2M1238.1 1508.1L1209.4 1617M1064.4 1623.2L1209.4 1617M1360.7 1487.3L1332.6 1598.3M1238.1 1508.1L1332.6 1598.3M1209.4 1617L1332.6 1598.3M1500.4 1504.4L1461.9 1629.6M1360.7 1487.3L1461.9 1629.6M1332.6 1598.3L1461.9 1629.6M1637.5 1503.8L1461.9 1629.6M1637.5 1503.8L1630.8 1597M1461.9 1629.6L1630.8 1597M1768.5 1499.4L1748.3 1599M1637.5 1503.8L1748.3 1599M1630.8 1597L1748.3 1599M1872.8 1486.2L1748.3 1599M1872.8 1486.2L1876.7 1624.1M1748.3 1599L1876.7 1624.1M2015.8 1494.3L1876.7 1624.1M2015.8 1494.3L2019.8 1615.2M1876.7 1624.1L2019.8 1615.2M2162.6 1464.8L2019.8 1615.2M2162.6 1464.8L2149.5 1620.4M2019.8 1615.2L2149.5 1620.4M1.7 1595.8L-22.7 1773.5M-119.3 1622.5L-22.7 1773.5M-119.3 1622.5L-139.9 1754.9M-139.9 1754.9L-22.7 1773.5M113.3 1617.4L117.4 1739.9M1.7 1595.8L117.4 1739.9M-22.7 1773.5L117.4 1739.9M250 1612.3L117.4 1739.9M250 1612.3L274.7 1739.3M117.4 1739.9L274.7 1739.3M414.9 1624L274.7 1739.3M414.9 1624L382.9 1771.5M274.7 1739.3L382.9 1771.5M559.6 1615.5L542.4 1762.9M414.9 1624L542.4 1762.9M382.9 1771.5L542.4 1762.9M692.6 1638.9L542.4 1762.9M692.6 1638.9L662.9 1759.2M542.4 1762.9L662.9 1759.2M793.2 1602.7L805 1779M692.6 1638.9L805 1779M662.9 1759.2L805 1779M922.9 1602.4L931.7 1743.5M793.2 1602.7L931.7 1743.5M805 1779L931.7 1743.5M1064.4 1623.2L1097.2 1733.9M922.9 1602.4L1097.2 1733.9M931.7 1743.5L1097.2 1733.9M1209.4 1617L1191.6 1743.7M1064.4 1623.2L1191.6 1743.7M1097.2 1733.9L1191.6 1743.7M1332.6 1598.3L1191.6 1743.7M1332.6 1598.3L1337.6 1737.9M1191.6 1743.7L1337.6 1737.9M1461.9 1629.6L1337.6 1737.9M1461.9 1629.6L1492.1 1753.2M1337.6 1737.9L1492.1 1753.2M1630.8 1597L1492.1 1753.2M1630.8 1597L1625 1767.5M1492.1 1753.2L1625 1767.5M1748.3 1599L1625 1767.5M1748.3 1599L1776.9 1768.5M1625 1767.5L1776.9 1768.5M1876.7 1624.1L1900.7 1741.4M1748.3 1599L1900.7 1741.4M1776.9 1768.5L1900.7 1741.4M2019.8 1615.2L1900.7 1741.4M2019.8 1615.2L2018 1737.4M1900.7 1741.4L2018 1737.4M2149.5 1620.4L2138.6 1742.3M2019.8 1615.2L2138.6 1742.3M2018 1737.4L2138.6 1742.3M-22.7 1773.5L0.5 1883.9M-139.9 1754.9L0.5 1883.9M-139.9 1754.9L-125.7 1890.2M-125.7 1890.2L0.5 1883.9M117.4 1739.9L152 1870.5M-22.7 1773.5L152 1870.5M0.5 1883.9L152 1870.5M274.7 1739.3L277.7 1870.6M117.4 1739.9L277.7 1870.6M152 1870.5L277.7 1870.6M382.9 1771.5L416.2 1870.4M274.7 1739.3L416.2 1870.4M277.7 1870.6L416.2 1870.4M542.4 1762.9L416.2 1870.4M542.4 1762.9L548.7 1874M416.2 1870.4L548.7 1874M662.9 1759.2L678.7 1870.9M542.4 1762.9L678.7 1870.9M548.7 1874L678.7 1870.9M805 1779L795.9 1870.5M662.9 1759.2L795.9 1870.5M678.7 1870.9L795.9 1870.5M931.7 1743.5L923.3 1880.3M805 1779L923.3 1880.3M795.9 1870.5L923.3 1880.3M1097.2 1733.9L1066.9 1896.2M931.7 1743.5L1066.9 1896.2M923.3 1880.3L1066.9 1896.2M1191.6 1743.7L1221.5 1867.4M1097.2 1733.9L1221.5 1867.4M1066.9 1896.2L1221.5 1867.4M1337.6 1737.9L1221.5 1867.4M1337.6 1737.9L1345.6 1872.9M1221.5 1867.4L1345.6 1872.9M1492.1 1753.2L1345.6 1872.9M1492.1 1753.2L1469 1897.3M1345.6 1872.9L1469 1897.3M1625 1767.5L1469 1897.3M1625 1767.5L1631.4 1877.1M1469 1897.3L1631.4 1877.1M1776.9 1768.5L1743 1913.8M1625 1767.5L1743 1913.8M1631.4 1877.1L1743 1913.8M1900.7 1741.4L1743 1913.8M1900.7 1741.4L1872.3 1902.9M1743 1913.8L1872.3 1902.9M2018 1737.4L2033.4 1894.5M1900.7 1741.4L2033.4 1894.5M1872.3 1902.9L2033.4 1894.5M2138.6 1742.3L2145.5 1898.7M2018 1737.4L2145.5 1898.7M2033.4 1894.5L2145.5 1898.7M0.5 1883.9L-0.7 2028M-125.7 1890.2L-0.7 2028M-125.7 1890.2L-154.8 2006.8M-154.8 2006.8L-0.7 2028M152 1870.5L140.6 2009.6M0.5 1883.9L140.6 2009.6M-0.7 2028L140.6 2009.6M277.7 1870.6L290.6 2008.8M152 1870.5L290.6 2008.8M140.6 2009.6L290.6 2008.8M416.2 1870.4L290.6 2008.8M416.2 1870.4L382.2 2009.6M290.6 2008.8L382.2 2009.6M548.7 1874L382.2 2009.6M548.7 1874L528.5 2001.5M382.2 2009.6L528.5 2001.5M678.7 1870.9L654.5 2042.2M548.7 1874L654.5 2042.2M528.5 2001.5L654.5 2042.2M795.9 1870.5L654.5 2042.2M795.9 1870.5L817.4 2003.8M654.5 2042.2L817.4 2003.8M923.3 1880.3L940.7 2049.2M795.9 1870.5L940.7 2049.2M817.4 2003.8L940.7 2049.2M1066.9 1896.2L1069.4 2014.6M923.3 1880.3L1069.4 2014.6M940.7 2049.2L1069.4 2014.6M1221.5 1867.4L1069.4 2014.6M1221.5 1867.4L1200.5 2015.1M1069.4 2014.6L1200.5 2015.1M1345.6 1872.9L1353.6 2029.5M1221.5 1867.4L1353.6 2029.5M1200.5 2015.1L1353.6 2029.5M1469 1897.3L1353.6 2029.5M1469 1897.3L1493.5 2031.1M1353.6 2029.5L1493.5 2031.1M1631.4 1877.1L1493.5 2031.1M1631.4 1877.1L1611.4 2024M1493.5 2031.1L1611.4 2024M1743 1913.8L1758 2008.5M1631.4 1877.1L1758 2008.5M1611.4 2024L1758 2008.5M1872.3 1902.9L1758 2008.5M1872.3 1902.9L1872.6 2019.5M1758 2008.5L1872.6 2019.5M2033.4 1894.5L2043 2038.2M1872.3 1902.9L2043 2038.2M1872.6 2019.5L2043 2038.2M2145.5 1898.7L2146.6 2011.1M2033.4 1894.5L2146.6 2011.1M2043 2038.2L2146.6 2011.1M-0.7 2028L-110.8 2144.7M-154.8 2006.8L-110.8 2144.7M-0.7 2028L8.7 2156.6M-110.8 2144.7L8.7 2156.6M140.6 2009.6L8.7 2156.6M140.6 2009.6L130.1 2147.7M8.7 2156.6L130.1 2147.7M290.6 2008.8L130.1 2147.7M290.6 2008.8L273.8 2182.9M130.1 2147.7L273.8 2182.9M382.2 2009.6L411.3 2161.8M290.6 2008.8L411.3 2161.8M273.8 2182.9L411.3 2161.8M528.5 2001.5L411.3 2161.8M528.5 2001.5L546.4 2176.1M411.3 2161.8L546.4 2176.1M654.5 2042.2L546.4 2176.1M654.5 2042.2L681.9 2143.3M546.4 2176.1L681.9 2143.3M817.4 2003.8L681.9 2143.3M817.4 2003.8L808.9 2150.2M681.9 2143.3L808.9 2150.2M940.7 2049.2L808.9 2150.2M940.7 2049.2L920.8 2153.6M808.9 2150.2L920.8 2153.6M1069.4 2014.6L1092.9 2184M940.7 2049.2L1092.9 2184M920.8 2153.6L1092.9 2184M1200.5 2015.1L1092.9 2184M1200.5 2015.1L1211.9 2183.3M1092.9 2184L1211.9 2183.3M1353.6 2029.5L1336.8 2180.4M1200.5 2015.1L1336.8 2180.4M1211.9 2183.3L1336.8 2180.4M1493.5 2031.1L1474.6 2138.5M1353.6 2029.5L1474.6 2138.5M1336.8 2180.4L1474.6 2138.5M1611.4 2024L1609.5 2158.8M1493.5 2031.1L1609.5 2158.8M1474.6 2138.5L1609.5 2158.8M1758 2008.5L1609.5 2158.8M1758 2008.5L1738.8 2173.8M1609.5 2158.8L1738.8 2173.8M1872.6 2019.5L1872 2145.7M1758 2008.5L1872 2145.7M1738.8 2173.8L1872 2145.7M2043 2038.2L1872 2145.7M2043 2038.2L2046.4 2165.8M1872 2145.7L2046.4 2165.8M2146.6 2011.1L2046.4 2165.8M2146.6 2011.1L2168.3 2163M2046.4 2165.8L2168.3 2163M8.7 2156.6L-157.7 2311.8M-110.8 2144.7L-157.7 2311.8M8.7 2156.6L-12.8 2303.1M-157.7 2311.8L-12.8 2303.1M130.1 2147.7L142.6 2293.3M8.7 2156.6L142.6 2293.3M-12.8 2303.1L142.6 2293.3M273.8 2182.9L267.9 2311.6M130.1 2147.7L267.9 2311.6M142.6 2293.3L267.9 2311.6M411.3 2161.8L406.6 2279.5M273.8 2182.9L406.6 2279.5M267.9 2311.6L406.6 2279.5M546.4 2176.1L406.6 2279.5M546.4 2176.1L555 2294.6M406.6 2279.5L555 2294.6M681.9 2143.3L680.4 2280.6M546.4 2176.1L680.4 2280.6M555 2294.6L680.4 2280.6M808.9 2150.2L788.9 2313.2M681.9 2143.3L788.9 2313.2M680.4 2280.6L788.9 2313.2M920.8 2153.6L788.9 2313.2M920.8 2153.6L924.5 2299.8M788.9 2313.2L924.5 2299.8M1092.9 2184L1057.1 2286M920.8 2153.6L1057.1 2286M924.5 2299.8L1057.1 2286M1211.9 2183.3L1210.6 2298.3M1092.9 2184L1210.6 2298.3M1057.1 2286L1210.6 2298.3M1336.8 2180.4L1369.9 2295.3M1211.9 2183.3L1369.9 2295.3M1210.6 2298.3L1369.9 2295.3M1474.6 2138.5L1481.4 2274.4M1336.8 2180.4L1481.4 2274.4M1369.9 2295.3L1481.4 2274.4M1609.5 2158.8L1481.4 2274.4M1609.5 2158.8L1617.4 2279.7M1481.4 2274.4L1617.4 2279.7M1738.8 2173.8L1617.4 2279.7M1738.8 2173.8L1767.8 2285.8M1617.4 2279.7L1767.8 2285.8M1872 2145.7L1767.8 2285.8M1872 2145.7L1906.1 2282.7M1767.8 2285.8L1906.1 2282.7M2046.4 2165.8L2004.2 2290.8M1872 2145.7L2004.2 2290.8M1906.1 2282.7L2004.2 2290.8M2168.3 2163L2155.4 2287.7M2046.4 2165.8L2155.4 2287.7M2004.2 2290.8L2155.4 2287.7M-12.8 2303.1L-148.7 2443.6M-157.7 2311.8L-148.7 2443.6M-12.8 2303.1L10 2446.3M-148.7 2443.6L10 2446.3M142.6 2293.3L127.7 2448.2M-12.8 2303.1L127.7 2448.2M10 2446.3L127.7 2448.2M267.9 2311.6L253 2426.3M142.6 2293.3L253 2426.3M127.7 2448.2L253 2426.3M406.6 2279.5L421.9 2421.4M267.9 2311.6L421.9 2421.4M253 2426.3L421.9 2421.4M555 2294.6L421.9 2421.4M555 2294.6L564 2434.2M421.9 2421.4L564 2434.2M680.4 2280.6L666.2 2433M555 2294.6L666.2 2433M564 2434.2L666.2 2433M788.9 2313.2L666.2 2433M788.9 2313.2L827.5 2425.6M666.2 2433L827.5 2425.6M924.5 2299.8L827.5 2425.6M924.5 2299.8L954.4 2406M827.5 2425.6L954.4 2406M1057.1 2286L954.4 2406M1057.1 2286L1058.4 2453.1M954.4 2406L1058.4 2453.1M1210.6 2298.3L1191.6 2442.2M1057.1 2286L1191.6 2442.2M1058.4 2453.1L1191.6 2442.2M1369.9 2295.3L1191.6 2442.2M1369.9 2295.3L1330.6 2425.4M1191.6 2442.2L1330.6 2425.4M1481.4 2274.4L1505.6 2446.6M1369.9 2295.3L1505.6 2446.6M1330.6 2425.4L1505.6 2446.6M1617.4 2279.7L1505.6 2446.6M1617.4 2279.7L1606.7 2450.6M1505.6 2446.6L1606.7 2450.6M1767.8 2285.8L1779.1 2424.1M1617.4 2279.7L1779.1 2424.1M1606.7 2450.6L1779.1 2424.1M1906.1 2282.7L1779.1 2424.1M1906.1 2282.7L1882.2 2425M1779.1 2424.1L1882.2 2425M2004.2 2290.8L2040 2429.5M1906.1 2282.7L2040 2429.5M1882.2 2425L2040 2429.5M2155.4 2287.7L2040 2429.5M2155.4 2287.7L2165.7 2437.2M2040 2429.5L2165.7 2437.2M10 2446.3L-13.9 2556.2M-148.7 2443.6L-13.9 2556.2M-148.7 2443.6L-112 2570.6M-112 2570.6L-13.9 2556.2M127.7 2448.2L-13.9 2556.2M127.7 2448.2L142.3 2543.1M-13.9 2556.2L142.3 2543.1M253 2426.3L142.3 2543.1M253 2426.3L261.9 2572.4M142.3 2543.1L261.9 2572.4M421.9 2421.4L261.9 2572.4M421.9 2421.4L408.4 2556.6M261.9 2572.4L408.4 2556.6M564 2434.2L542.1 2575.4M421.9 2421.4L542.1 2575.4M408.4 2556.6L542.1 2575.4M666.2 2433L693.4 2560.4M564 2434.2L693.4 2560.4M542.1 2575.4L693.4 2560.4M827.5 2425.6L693.4 2560.4M827.5 2425.6L786.2 2544.6M693.4 2560.4L786.2 2544.6M954.4 2406L786.2 2544.6M954.4 2406L954.8 2553.5M786.2 2544.6L954.8 2553.5M1058.4 2453.1L954.8 2553.5M1058.4 2453.1L1058.4 2580.5M954.8 2553.5L1058.4 2580.5M1191.6 2442.2L1058.4 2580.5M1191.6 2442.2L1207.8 2575.8M1058.4 2580.5L1207.8 2575.8M1330.6 2425.4L1328.1 2585.8M1191.6 2442.2L1328.1 2585.8M1207.8 2575.8L1328.1 2585.8M1505.6 2446.6L1328.1 2585.8M1505.6 2446.6L1462.2 2563.1M1328.1 2585.8L1462.2 2563.1M1606.7 2450.6L1631.4 2557.8M1505.6 2446.6L1631.4 2557.8M1462.2 2563.1L1631.4 2557.8M1779.1 2424.1L1737.2 2542.4M1606.7 2450.6L1737.2 2542.4M1631.4 2557.8L1737.2 2542.4M1882.2 2425L1888.5 2560.3M1779.1 2424.1L1888.5 2560.3M1737.2 2542.4L1888.5 2560.3M2040 2429.5L2028.2 2542.5M1882.2 2425L2028.2 2542.5M1888.5 2560.3L2028.2 2542.5M2165.7 2437.2L2028.2 2542.5M2165.7 2437.2L2162.9 2574.7M2028.2 2542.5L2162.9 2574.7" fill="none" stroke="rgb(37 99 235)" stroke-width="1.05" stroke-linecap="round" stroke-linejoin="round" stroke-opacity="0.105"/><g fill="rgb(37 99 235)" opacity="0.14"><circle cx="-15.8" cy="-117" r="1.45"/><circle cx="157.8" cy="-133" r="1.45"/><circle cx="285.2" cy="-112.7" r="1.45"/><circle cx="385.5" cy="-128.2" r="1.45"/><circle cx="1088.4" cy="-122.5" r="1.45"/><circle cx="1369" cy="-127.5" r="1.45"/><circle cx="1875.6" cy="-132.9" r="1.45"/><circle cx="-123" cy="-7" r="1.45"/><circle cx="8.8" cy="5.9" r="1.45"/><circle cx="153.5" cy="15.1" r="1.45"/><circle cx="248.7" cy="7.3" r="1.45"/><circle cx="414.3" cy="7.5" r="1.45"/><circle cx="552" cy="21" r="1.45"/><circle cx="656.2" cy="-2.8" r="1.45"/><circle cx="793.8" cy="-20.6" r="1.45"/><circle cx="938" cy="-18.4" r="1.45"/><circle cx="1094.2" cy="17.2" r="1.45"/><circle cx="1206.6" cy="-5.1" r="1.45"/><circle cx="1328.9" cy="-12.9" r="1.45"/><circle cx="1481.3" cy="16.1" r="1.45"/><circle cx="1611.3" cy="-15.3" r="1.45"/><circle cx="1776.9" cy="1.4" r="1.45"/><circle cx="1870.6" cy="-3.9" r="1.45"/><circle cx="-122.5" cy="126" r="1.45"/><circle cx="23.2" cy="111.3" r="1.45"/><circle cx="124.8" cy="148.1" r="1.45"/><circle cx="271.3" cy="135.3" r="1.45"/><circle cx="400" cy="126.3" r="1.45"/><circle cx="559.8" cy="116.1" r="1.45"/><circle cx="676.2" cy="115.9" r="1.45"/><circle cx="814.4" cy="145.8" r="1.45"/><circle cx="955.9" cy="122" r="1.45"/><circle cx="1102.1" cy="155.9" r="1.45"/><circle cx="1205.7" cy="140.8" r="1.45"/><circle cx="1359.1" cy="151.5" r="1.45"/><circle cx="1481.1" cy="122.5" r="1.45"/><circle cx="1617.6" cy="139.1" r="1.45"/><circle cx="1775.7" cy="154.6" r="1.45"/><circle cx="1888.3" cy="135.4" r="1.45"/><circle cx="13.9" cy="291" r="1.45"/><circle cx="152.7" cy="280.8" r="1.45"/><circle cx="275.3" cy="248.7" r="1.45"/><circle cx="422.2" cy="279" r="1.45"/><circle cx="527.4" cy="282" r="1.45"/><circle cx="654.3" cy="262.1" r="1.45"/><circle cx="807.6" cy="268" r="1.45"/><circle cx="948.3" cy="285.9" r="1.45"/><circle cx="1089.1" cy="278.4" r="1.45"/><circle cx="1201.6" cy="291.7" r="1.45"/><circle cx="1356.3" cy="261.5" r="1.45"/><circle cx="1492.9" cy="258" r="1.45"/><circle cx="1625.9" cy="271.2" r="1.45"/><circle cx="1778.6" cy="246.5" r="1.45"/><circle cx="1887.8" cy="264.2" r="1.45"/><circle cx="-115.4" cy="408.6" r="1.45"/><circle cx="-8.1" cy="425.4" r="1.45"/><circle cx="110.8" cy="422.7" r="1.45"/><circle cx="260.4" cy="421.6" r="1.45"/><circle cx="422.3" cy="389" r="1.45"/><circle cx="554.6" cy="383.9" r="1.45"/><circle cx="688.3" cy="410.9" r="1.45"/><circle cx="791.3" cy="393.8" r="1.45"/><circle cx="922.9" cy="380.9" r="1.45"/><circle cx="1084.4" cy="383.1" r="1.45"/><circle cx="1209.4" cy="402.7" r="1.45"/><circle cx="1338.9" cy="381.1" r="1.45"/><circle cx="1503" cy="423.4" r="1.45"/><circle cx="1604.2" cy="395.8" r="1.45"/><circle cx="1753.3" cy="426.9" r="1.45"/><circle cx="1897.8" cy="413.2" r="1.45"/><circle cx="-116.1" cy="519.2" r="1.45"/><circle cx="-15.7" cy="541.4" r="1.45"/><circle cx="121.9" cy="556.4" r="1.45"/><circle cx="277.3" cy="519.2" r="1.45"/><circle cx="416.9" cy="534.7" r="1.45"/><circle cx="557" cy="545.5" r="1.45"/><circle cx="655.6" cy="561.6" r="1.45"/><circle cx="818.5" cy="528" r="1.45"/><circle cx="951.7" cy="521.9" r="1.45"/><circle cx="1062.1" cy="536.8" r="1.45"/><circle cx="1192.1" cy="560.2" r="1.45"/><circle cx="1353.9" cy="551.5" r="1.45"/><circle cx="1471.4" cy="564" r="1.45"/><circle cx="1636.3" cy="554.2" r="1.45"/><circle cx="1757" cy="561.3" r="1.45"/><circle cx="1892.7" cy="547.6" r="1.45"/><circle cx="2.2" cy="693.9" r="1.45"/><circle cx="152.7" cy="686.8" r="1.45"/><circle cx="280.5" cy="666.1" r="1.45"/><circle cx="390.5" cy="672.2" r="1.45"/><circle cx="520.4" cy="696.8" r="1.45"/><circle cx="681.5" cy="683.1" r="1.45"/><circle cx="833.9" cy="681" r="1.45"/><circle cx="942.4" cy="695.5" r="1.45"/><circle cx="1056.8" cy="670" r="1.45"/><circle cx="1206.5" cy="680.8" r="1.45"/><circle cx="1366.4" cy="679.8" r="1.45"/><circle cx="1478.1" cy="684.3" r="1.45"/><circle cx="1613.5" cy="661.3" r="1.45"/><circle cx="1734.3" cy="690.4" r="1.45"/><circle cx="1887.8" cy="698" r="1.45"/><circle cx="16" cy="830" r="1.45"/><circle cx="114.1" cy="808.2" r="1.45"/><circle cx="272.4" cy="821.6" r="1.45"/><circle cx="386.7" cy="817.3" r="1.45"/><circle cx="541.2" cy="786.8" r="1.45"/><circle cx="693.7" cy="822" r="1.45"/><circle cx="794.7" cy="811.4" r="1.45"/><circle cx="957.3" cy="832.9" r="1.45"/><circle cx="1071.3" cy="804.5" r="1.45"/><circle cx="1201.4" cy="806.6" r="1.45"/><circle cx="1331.2" cy="789" r="1.45"/><circle cx="1483.7" cy="824.2" r="1.45"/><circle cx="1599" cy="802.3" r="1.45"/><circle cx="1760.6" cy="812" r="1.45"/><circle cx="1890.4" cy="817" r="1.45"/><circle cx="-23.9" cy="959.6" r="1.45"/><circle cx="111.9" cy="949.2" r="1.45"/><circle cx="252.8" cy="936.5" r="1.45"/><circle cx="388.3" cy="953.3" r="1.45"/><circle cx="546.4" cy="940" r="1.45"/><circle cx="676.7" cy="926.2" r="1.45"/><circle cx="823.2" cy="937.7" r="1.45"/><circle cx="958.7" cy="925.1" r="1.45"/><circle cx="1066.7" cy="956.3" r="1.45"/><circle cx="1200.4" cy="933.1" r="1.45"/><circle cx="1363.2" cy="953.1" r="1.45"/><circle cx="1470.7" cy="944" r="1.45"/><circle cx="1600.3" cy="946.2" r="1.45"/><circle cx="1778.3" cy="929.5" r="1.45"/><circle cx="1866.9" cy="921" r="1.45"/><circle cx="-115" cy="1069.7" r="1.45"/><circle cx="13.9" cy="1060.7" r="1.45"/><circle cx="137.3" cy="1093.7" r="1.45"/><circle cx="248.2" cy="1066.8" r="1.45"/><circle cx="422" cy="1094.1" r="1.45"/><circle cx="523" cy="1059" r="1.45"/><circle cx="674.2" cy="1092.8" r="1.45"/><circle cx="794.4" cy="1077.3" r="1.45"/><circle cx="924.7" cy="1083.8" r="1.45"/><circle cx="1070.6" cy="1094" r="1.45"/><circle cx="1223.4" cy="1091.8" r="1.45"/><circle cx="1346.1" cy="1060.2" r="1.45"/><circle cx="1476.2" cy="1099.8" r="1.45"/><circle cx="1643.5" cy="1099.2" r="1.45"/><circle cx="1749.9" cy="1078.6" r="1.45"/><circle cx="1909.7" cy="1090.2" r="1.45"/><circle cx="-124.3" cy="1212.7" r="1.45"/><circle cx="-15.4" cy="1192.6" r="1.45"/><circle cx="143.7" cy="1210.7" r="1.45"/><circle cx="274.5" cy="1221.2" r="1.45"/><circle cx="386.2" cy="1216.3" r="1.45"/><circle cx="542.7" cy="1236.3" r="1.45"/><circle cx="678.9" cy="1222.9" r="1.45"/><circle cx="808.5" cy="1232.5" r="1.45"/><circle cx="952.6" cy="1214.8" r="1.45"/><circle cx="1077.7" cy="1206.1" r="1.45"/><circle cx="1218.5" cy="1221.3" r="1.45"/><circle cx="1328.8" cy="1198.1" r="1.45"/><circle cx="1503.5" cy="1192" r="1.45"/><circle cx="1603" cy="1227.4" r="1.45"/><circle cx="1756.6" cy="1226.2" r="1.45"/><circle cx="1888.4" cy="1227.8" r="1.45"/><circle cx="7.4" cy="1328.2" r="1.45"/><circle cx="129.2" cy="1331" r="1.45"/><circle cx="249.2" cy="1328.8" r="1.45"/><circle cx="406.3" cy="1334.8" r="1.45"/><circle cx="556.5" cy="1364.1" r="1.45"/><circle cx="684.8" cy="1339.7" r="1.45"/><circle cx="824.1" cy="1345.4" r="1.45"/><circle cx="924" cy="1326.5" r="1.45"/><circle cx="1067.1" cy="1367.9" r="1.45"/><circle cx="1237.2" cy="1360.8" r="1.45"/><circle cx="1365.3" cy="1329.8" r="1.45"/><circle cx="1462.4" cy="1355.9" r="1.45"/><circle cx="1620.8" cy="1373.7" r="1.45"/><circle cx="1774.9" cy="1338" r="1.45"/><circle cx="1875.6" cy="1340.2" r="1.45"/><circle cx="-4.8" cy="1464.9" r="1.45"/><circle cx="111.9" cy="1485.6" r="1.45"/><circle cx="283.9" cy="1466.8" r="1.45"/><circle cx="387" cy="1495.3" r="1.45"/><circle cx="562.6" cy="1484.5" r="1.45"/><circle cx="672.4" cy="1507.9" r="1.45"/><circle cx="804" cy="1483.9" r="1.45"/><circle cx="961.4" cy="1468.2" r="1.45"/><circle cx="1093.1" cy="1499.4" r="1.45"/><circle cx="1238.1" cy="1508.1" r="1.45"/><circle cx="1360.7" cy="1487.3" r="1.45"/><circle cx="1500.4" cy="1504.4" r="1.45"/><circle cx="1637.5" cy="1503.8" r="1.45"/><circle cx="1768.5" cy="1499.4" r="1.45"/><circle cx="1872.8" cy="1486.2" r="1.45"/><circle cx="-119.3" cy="1622.5" r="1.45"/><circle cx="1.7" cy="1595.8" r="1.45"/><circle cx="113.3" cy="1617.4" r="1.45"/><circle cx="250" cy="1612.3" r="1.45"/><circle cx="414.9" cy="1624" r="1.45"/><circle cx="559.6" cy="1615.5" r="1.45"/><circle cx="692.6" cy="1638.9" r="1.45"/><circle cx="793.2" cy="1602.7" r="1.45"/><circle cx="922.9" cy="1602.4" r="1.45"/><circle cx="1064.4" cy="1623.2" r="1.45"/><circle cx="1209.4" cy="1617" r="1.45"/><circle cx="1332.6" cy="1598.3" r="1.45"/><circle cx="1461.9" cy="1629.6" r="1.45"/><circle cx="1630.8" cy="1597" r="1.45"/><circle cx="1748.3" cy="1599" r="1.45"/><circle cx="1876.7" cy="1624.1" r="1.45"/><circle cx="-22.7" cy="1773.5" r="1.45"/><circle cx="117.4" cy="1739.9" r="1.45"/><circle cx="274.7" cy="1739.3" r="1.45"/><circle cx="382.9" cy="1771.5" r="1.45"/><circle cx="542.4" cy="1762.9" r="1.45"/><circle cx="662.9" cy="1759.2" r="1.45"/><circle cx="805" cy="1779" r="1.45"/><circle cx="931.7" cy="1743.5" r="1.45"/><circle cx="1097.2" cy="1733.9" r="1.45"/><circle cx="1191.6" cy="1743.7" r="1.45"/><circle cx="1337.6" cy="1737.9" r="1.45"/><circle cx="1492.1" cy="1753.2" r="1.45"/><circle cx="1625" cy="1767.5" r="1.45"/><circle cx="1776.9" cy="1768.5" r="1.45"/><circle cx="1900.7" cy="1741.4" r="1.45"/><circle cx="-125.7" cy="1890.2" r="1.45"/><circle cx="0.5" cy="1883.9" r="1.45"/><circle cx="152" cy="1870.5" r="1.45"/><circle cx="277.7" cy="1870.6" r="1.45"/><circle cx="416.2" cy="1870.4" r="1.45"/><circle cx="548.7" cy="1874" r="1.45"/><circle cx="678.7" cy="1870.9" r="1.45"/><circle cx="795.9" cy="1870.5" r="1.45"/><circle cx="923.3" cy="1880.3" r="1.45"/><circle cx="1066.9" cy="1896.2" r="1.45"/><circle cx="1221.5" cy="1867.4" r="1.45"/><circle cx="1345.6" cy="1872.9" r="1.45"/><circle cx="1469" cy="1897.3" r="1.45"/><circle cx="1631.4" cy="1877.1" r="1.45"/><circle cx="1743" cy="1913.8" r="1.45"/><circle cx="1872.3" cy="1902.9" r="1.45"/><circle cx="-0.7" cy="2028" r="1.45"/><circle cx="140.6" cy="2009.6" r="1.45"/><circle cx="290.6" cy="2008.8" r="1.45"/><circle cx="382.2" cy="2009.6" r="1.45"/><circle cx="528.5" cy="2001.5" r="1.45"/><circle cx="654.5" cy="2042.2" r="1.45"/><circle cx="817.4" cy="2003.8" r="1.45"/><circle cx="940.7" cy="2049.2" r="1.45"/><circle cx="1069.4" cy="2014.6" r="1.45"/><circle cx="1200.5" cy="2015.1" r="1.45"/><circle cx="1353.6" cy="2029.5" r="1.45"/><circle cx="1493.5" cy="2031.1" r="1.45"/><circle cx="1611.4" cy="2024" r="1.45"/><circle cx="1758" cy="2008.5" r="1.45"/><circle cx="1872.6" cy="2019.5" r="1.45"/><circle cx="-110.8" cy="2144.7" r="1.45"/><circle cx="8.7" cy="2156.6" r="1.45"/><circle cx="130.1" cy="2147.7" r="1.45"/><circle cx="273.8" cy="2182.9" r="1.45"/><circle cx="411.3" cy="2161.8" r="1.45"/><circle cx="546.4" cy="2176.1" r="1.45"/><circle cx="681.9" cy="2143.3" r="1.45"/><circle cx="808.9" cy="2150.2" r="1.45"/><circle cx="920.8" cy="2153.6" r="1.45"/><circle cx="1092.9" cy="2184" r="1.45"/><circle cx="1211.9" cy="2183.3" r="1.45"/><circle cx="1336.8" cy="2180.4" r="1.45"/><circle cx="1474.6" cy="2138.5" r="1.45"/><circle cx="1609.5" cy="2158.8" r="1.45"/><circle cx="1738.8" cy="2173.8" r="1.45"/><circle cx="1872" cy="2145.7" r="1.45"/><circle cx="-12.8" cy="2303.1" r="1.45"/><circle cx="142.6" cy="2293.3" r="1.45"/><circle cx="267.9" cy="2311.6" r="1.45"/><circle cx="406.6" cy="2279.5" r="1.45"/><circle cx="555" cy="2294.6" r="1.45"/><circle cx="680.4" cy="2280.6" r="1.45"/><circle cx="788.9" cy="2313.2" r="1.45"/><circle cx="924.5" cy="2299.8" r="1.45"/><circle cx="1057.1" cy="2286" r="1.45"/><circle cx="1210.6" cy="2298.3" r="1.45"/><circle cx="1369.9" cy="2295.3" r="1.45"/><circle cx="1481.4" cy="2274.4" r="1.45"/><circle cx="1617.4" cy="2279.7" r="1.45"/><circle cx="1767.8" cy="2285.8" r="1.45"/><circle cx="1906.1" cy="2282.7" r="1.45"/></g></svg>
