<svg width="1000" height="1011" viewBox="0 0 1000 1011" fill="none" xmlns="http://www.w3.org/2000/svg">
<g clip-path="url(#clip0_732_1340)">
<path d="M497.766 0.392197C773.882 -0.828538 998.745 223.585 999.995 501.717C1001.14 757.094 813.355 968.919 568.881 1002.85C381.112 1029.33 197.133 948.682 89.6367 791.779C33.5576 710.813 0.483151 612.448 0.00585938 506.257C-1.24422 228.125 221.611 1.65123 497.766 0.392197ZM497.903 31.6422C239.215 32.8217 30.0815 245.033 31.2549 506.117C31.6665 597.691 57.8948 683.018 102.939 755.165C134.57 668.589 140.089 587.87 148.695 483.863C155.815 373.914 185.259 282.593 370.885 231.071C411.689 221.202 454.151 224.377 497.148 234.113C563.17 221.606 636.337 219.49 685.125 300.153C708.309 309.046 731.18 317.264 753.562 323.782L753.523 323.744C944.667 376.291 926.371 481.338 833.185 569.352C809.543 594.008 784.074 617.251 767.66 634.082C700.727 702.699 585.608 832.129 586.387 968.326C804.705 927.334 969.788 733.9 968.745 501.858C967.572 240.775 756.555 30.4985 497.903 31.6422ZM429.07 282.553C375.696 282.553 332.398 326.085 332.397 379.88C332.398 433.675 375.696 477.246 429.07 477.246C482.445 477.246 525.743 433.675 525.743 379.88C525.743 326.124 482.445 282.553 429.07 282.553ZM429.07 298.178C437.715 298.178 446.05 299.546 453.872 302.08C437.212 307.802 423.443 323.825 416.208 345.052L467.438 379.206L416.203 413.361C423.738 435.478 438.364 451.95 455.964 457.009C447.543 459.997 438.49 461.621 429.07 461.621C384.426 461.621 348.023 425.147 348.022 379.88C348.023 334.622 384.418 298.178 429.07 298.178Z" fill="white"/>
</g>
<defs>
<clipPath id="clip0_732_1340">
<rect width="1000" height="1010.61" fill="white" transform="translate(0 0.38739)"/>
</clipPath>
</defs>
</svg>
